# xmcd
#
# Track frame offsets: 
#        150
#        22363
#        38642
#        56560
#        73137
#        84250
#        94057
#        120746
#        135990
#        151048
#        169435
#        187290
#        199307
#        209233
#        228052
#        252963
#        272252
#        283456
#        295946
#        312146
#        325781
#
# Disc length: 4748 seconds
#
# Revision: 1
# Processed by: cddbd v1.5.2PL0 Copyright (c) Steve Scherf et al.
# Submitted via: ExactAudioCopy v1.0b1
#
DISCID=3d128a15
DTITLE=Various Artist - The best of Blues Alive
DYEAR=1900
DGENRE=Blues
TTITLE0=Chris Thomas King - Show on
TTITLE1=Ann Rabson - Sloopy drunk
TTITLE2=Robert B. Jones - Main down south
TTITLE3=Pat Fulgoni - Still in love with you
TTITLE4=Twenty miles - Ruby
TTITLE5=Michael Roach - San Francisco blues
TTITLE6=Lorenzo Thompson - I got my mojo working
TTITLE7=The Holmes brothers - Halleluia
TTITLE8=T-model Ford - Catfish
TTITLE9=C. J. Chenier and The Red Hot Louisiana Band - Bow-legged woman
TTITLE10=Hugo Race - Benzocaine
TTITLE11=Paul Wine Jones - Further on down the road
TTITLE12=Bob Log - Clock
TTITLE13=John Crampton - Who's that talking
TTITLE14=Fatal shore - If you go away
TTITLE15=The Kinsey Report - Killin' floor
TTITLE16=Louisiana red - Alabama train
TTITLE17=Terry Lee Hall - In too far
TTITLE18=Hans Theessink - Mercury blues
TTITLE19=Stan the Man and Betty S. - This old town
TTITLE20=Johny Mars and Bullfrog Blues - Thrill is gone
EXTD=
EXTT0=
EXTT1=
EXTT2=
EXTT3=
EXTT4=
EXTT5=
EXTT6=
EXTT7=
EXTT8=
EXTT9=
EXTT10=
EXTT11=
EXTT12=
EXTT13=
EXTT14=
EXTT15=
EXTT16=
EXTT17=
EXTT18=
EXTT19=
EXTT20=
PLAYORDER=
